<svg xmlns="http://www.w3.org/2000/svg" width="104.47" height="111.435" viewBox="0 0 104.47 111.435"><path d="M52.235.562A52.235,52.235,0,1,0,104.47,52.8,52.226,52.226,0,0,0,52.235.562Zm0,20.22A18.535,18.535,0,1,1,33.7,39.318,18.535,18.535,0,0,1,52.235,20.783Zm0,72.455A40.362,40.362,0,0,1,21.378,78.873a23.483,23.483,0,0,1,20.747-12.6,5.154,5.154,0,0,1,1.5.232,27.887,27.887,0,0,0,8.615,1.453,27.781,27.781,0,0,0,8.615-1.453,5.154,5.154,0,0,1,1.5-.232,23.483,23.483,0,0,1,20.747,12.6A40.362,40.362,0,0,1,52.235,93.238Z" transform="translate(0 -0.562)"/><g transform="translate(36.565 77.772)"><ellipse cx="15.671" cy="16.831" rx="15.671" ry="16.831" transform="translate(0 0)" fill="#fff"/><path d="M3.171,4.893V1.5H5.285V4.893H8.456V7.154H5.285v3.393H3.171V7.154H0V4.893Zm3.171,6.785V8.285H9.513V4.893h7.4l1.934,2.262H22.2a2.2,2.2,0,0,1,2.114,2.262V22.987A2.2,2.2,0,0,1,22.2,25.249H5.285a2.2,2.2,0,0,1-2.114-2.262V11.678Zm7.4,10.178A5.481,5.481,0,0,0,19.026,16.2a5.481,5.481,0,0,0-5.285-5.654A5.481,5.481,0,0,0,8.456,16.2,5.481,5.481,0,0,0,13.741,21.856ZM10.359,16.2a3.5,3.5,0,0,0,3.382,3.619A3.5,3.5,0,0,0,17.124,16.2a3.5,3.5,0,0,0-3.382-3.619A3.5,3.5,0,0,0,10.359,16.2Z" transform="translate(3.515 2.213)"/></g></svg>